<svg width="24" height="24" viewBox="0 0 24 24" fill="none" xmlns="http://www.w3.org/2000/svg">
    <path
        d="M5.85 17.1C6.7 16.45 7.65 15.9373 8.7 15.562C9.75 15.1867 10.85 14.9993 12 15C13.15 15 14.25 15.1877 15.3 15.563C16.35 15.9383 17.3 16.4507 18.15 17.1C18.7333 16.4167 19.1877 15.6417 19.513 14.775C19.8383 13.9083 20.0007 12.9833 20 12C20 9.78333 19.221 7.89567 17.663 6.337C16.105 4.77833 14.2173 3.99933 12 4C9.78333 4 7.89567 4.779 6.337 6.337C4.77833 7.895 3.99933 9.78267 4 12C4 12.9833 4.16267 13.9083 4.488 14.775C4.81333 15.6417 5.26733 16.4167 5.85 17.1ZM12 13C11.0167 13 10.1873 12.6627 9.512 11.988C8.83667 11.3133 8.49933 10.484 8.5 9.5C8.5 8.51667 8.83733 7.68733 9.512 7.012C10.1867 6.33667 11.016 5.99933 12 6C12.9833 6 13.8127 6.33733 14.488 7.012C15.1633 7.68667 15.5007 8.516 15.5 9.5C15.5 10.4833 15.1627 11.3127 14.488 11.988C13.8133 12.6633 12.984 13.0007 12 13ZM12 22C10.6167 22 9.31667 21.7373 8.1 21.212C6.88333 20.6867 5.825 19.9743 4.925 19.075C4.025 18.175 3.31267 17.1167 2.788 15.9C2.26333 14.6833 2.00067 13.3833 2 12C2 10.6167 2.26267 9.31667 2.788 8.1C3.31333 6.88333 4.02567 5.825 4.925 4.925C5.825 4.025 6.88333 3.31267 8.1 2.788C9.31667 2.26333 10.6167 2.00067 12 2C13.3833 2 14.6833 2.26267 15.9 2.788C17.1167 3.31333 18.175 4.02567 19.075 4.925C19.975 5.825 20.6877 6.88333 21.213 8.1C21.7383 9.31667 22.0007 10.6167 22 12C22 13.3833 21.7373 14.6833 21.212 15.9C20.6867 17.1167 19.9743 18.175 19.075 19.075C18.175 19.975 17.1167 20.6877 15.9 21.213C14.6833 21.7383 13.3833 22.0007 12 22ZM12 20C12.8833 20 13.7167 19.8707 14.5 19.612C15.2833 19.3533 16 18.9827 16.65 18.5C16 18.0167 15.2833 17.6457 14.5 17.387C13.7167 17.1283 12.8833 16.9993 12 17C11.1167 17 10.2833 17.1293 9.5 17.388C8.71667 17.6467 8 18.0173 7.35 18.5C8 18.9833 8.71667 19.3543 9.5 19.613C10.2833 19.8717 11.1167 20.0007 12 20ZM12 11C12.4333 11 12.7917 10.8583 13.075 10.575C13.3583 10.2917 13.5 9.93333 13.5 9.5C13.5 9.06667 13.3583 8.70833 13.075 8.425C12.7917 8.14167 12.4333 8 12 8C11.5667 8 11.2083 8.14167 10.925 8.425C10.6417 8.70833 10.5 9.06667 10.5 9.5C10.5 9.93333 10.6417 10.2917 10.925 10.575C11.2083 10.8583 11.5667 11 12 11Z"
        fill="#f7f7f7" />
</svg>